<?xml version="1.0" encoding="UTF-8" standalone="no"?>
<!DOCTYPE svg PUBLIC "-//W3C//DTD SVG 1.1//EN"
 "http://www.w3.org/Graphics/SVG/1.1/DTD/svg11.dtd">
<!-- Generated by graphviz version 2.40.1 (20161225.0304)
 -->
<!-- Title: aoc Pages: 1 -->
<svg width="1704pt" height="908pt"
 viewBox="0.00 0.00 1704.00 908.00" xmlns="http://www.w3.org/2000/svg" xmlns:xlink="http://www.w3.org/1999/xlink">
<g id="graph0" class="graph" transform="scale(1 1) rotate(0) translate(4 904)">
<title>aoc</title>
<polygon fill="#ffffff" stroke="transparent" points="-4,4 -4,-904 1700,-904 1700,4 -4,4"/>
<!-- O -->
<g id="node1" class="node">
<title>O</title>
<ellipse fill="none" stroke="#000000" cx="173" cy="-882" rx="27" ry="18"/>
<text text-anchor="middle" x="173" y="-878.3" font-family="Times,serif" font-size="14.00" fill="#000000">O</text>
</g>
<!-- W -->
<g id="node2" class="node">
<title>W</title>
<ellipse fill="none" stroke="#000000" cx="515" cy="-594" rx="27" ry="18"/>
<text text-anchor="middle" x="515" y="-590.3" font-family="Times,serif" font-size="14.00" fill="#000000">W</text>
</g>
<!-- O&#45;&gt;W -->
<g id="edge1" class="edge">
<title>O&#45;&gt;W</title>
<path fill="none" stroke="#000000" d="M198.128,-875.3431C226.4165,-867.1059 272.9931,-851.2594 308,-828 395.0044,-770.1921 468.2542,-666.9293 499.2044,-619.3191"/>
<polygon fill="#000000" stroke="#000000" points="502.1947,-621.1398 504.6538,-610.8343 496.3048,-617.357 502.1947,-621.1398"/>
</g>
<!-- S -->
<g id="node3" class="node">
<title>S</title>
<ellipse fill="none" stroke="#000000" cx="272" cy="-810" rx="27" ry="18"/>
<text text-anchor="middle" x="272" y="-806.3" font-family="Times,serif" font-size="14.00" fill="#000000">S</text>
</g>
<!-- O&#45;&gt;S -->
<g id="edge49" class="edge">
<title>O&#45;&gt;S</title>
<path fill="none" stroke="#000000" d="M191.6211,-868.4574C206.6935,-857.4956 228.1254,-841.9088 245.0687,-829.5864"/>
<polygon fill="#000000" stroke="#000000" points="247.4336,-832.1943 253.4624,-823.4819 243.3164,-826.5331 247.4336,-832.1943"/>
</g>
<!-- F -->
<g id="node7" class="node">
<title>F</title>
<ellipse fill="none" stroke="#000000" cx="57" cy="-738" rx="27" ry="18"/>
<text text-anchor="middle" x="57" y="-734.3" font-family="Times,serif" font-size="14.00" fill="#000000">F</text>
</g>
<!-- O&#45;&gt;F -->
<g id="edge74" class="edge">
<title>O&#45;&gt;F</title>
<path fill="none" stroke="#000000" d="M151.9332,-870.2919C136.0343,-860.6144 114.5467,-845.632 100,-828 84.5868,-809.3176 73.1803,-784.1852 66.0031,-765.227"/>
<polygon fill="#000000" stroke="#000000" points="69.2406,-763.8875 62.5445,-755.6769 62.6589,-766.2711 69.2406,-763.8875"/>
</g>
<!-- R -->
<g id="node8" class="node">
<title>R</title>
<ellipse fill="none" stroke="#000000" cx="576" cy="-162" rx="27" ry="18"/>
<text text-anchor="middle" x="576" y="-158.3" font-family="Times,serif" font-size="14.00" fill="#000000">R</text>
</g>
<!-- O&#45;&gt;R -->
<g id="edge95" class="edge">
<title>O&#45;&gt;R</title>
<path fill="none" stroke="#000000" d="M148.2133,-874.3481C100.3773,-857.866 0,-814.202 0,-738 0,-738 0,-738 0,-306 0,-241.4468 54.3513,-240.681 114,-216 190.8674,-184.1944 443.2428,-168.6073 538.8453,-163.7339"/>
<polygon fill="#000000" stroke="#000000" points="539.1056,-167.2253 548.9185,-163.2307 538.7563,-160.234 539.1056,-167.2253"/>
</g>
<!-- H -->
<g id="node19" class="node">
<title>H</title>
<ellipse fill="none" stroke="#000000" cx="1240" cy="-378" rx="27" ry="18"/>
<text text-anchor="middle" x="1240" y="-374.3" font-family="Times,serif" font-size="14.00" fill="#000000">H</text>
</g>
<!-- O&#45;&gt;H -->
<g id="edge94" class="edge">
<title>O&#45;&gt;H</title>
<path fill="none" stroke="#000000" d="M200.3494,-881.82C353.2693,-880.6476 1103.6186,-872.6728 1330,-828 1446.6785,-804.9753 1582,-856.9285 1582,-738 1582,-738 1582,-738 1582,-522 1582,-456.1464 1363.89,-403.6373 1276.0316,-385.1571"/>
<polygon fill="#000000" stroke="#000000" points="1276.4887,-381.6775 1265.9863,-383.0735 1275.067,-388.5316 1276.4887,-381.6775"/>
</g>
<!-- Y -->
<g id="node25" class="node">
<title>Y</title>
<ellipse fill="none" stroke="#000000" cx="433" cy="-450" rx="27" ry="18"/>
<text text-anchor="middle" x="433" y="-446.3" font-family="Times,serif" font-size="14.00" fill="#000000">Y</text>
</g>
<!-- O&#45;&gt;Y -->
<g id="edge54" class="edge">
<title>O&#45;&gt;Y</title>
<path fill="none" stroke="#000000" d="M161.3435,-865.611C144.1491,-839.7811 114,-787.4412 114,-738 114,-738 114,-738 114,-594 114,-532.3887 314.1757,-478.0274 397.3866,-458.0915"/>
<polygon fill="#000000" stroke="#000000" points="398.2393,-461.4865 407.1651,-455.7787 396.628,-454.6745 398.2393,-461.4865"/>
</g>
<!-- W&#45;&gt;R -->
<g id="edge84" class="edge">
<title>W&#45;&gt;R</title>
<path fill="none" stroke="#000000" d="M496.4374,-580.5593C469.3837,-559.8101 419.863,-517.1921 397,-468 363.1322,-395.1298 341.4944,-358.5294 380,-288 414.3126,-225.1508 494.8829,-188.9747 541.3359,-172.6339"/>
<polygon fill="#000000" stroke="#000000" points="542.6381,-175.888 550.9786,-169.3545 540.3842,-169.2607 542.6381,-175.888"/>
</g>
<!-- P -->
<g id="node11" class="node">
<title>P</title>
<ellipse fill="none" stroke="#000000" cx="883" cy="-522" rx="27" ry="18"/>
<text text-anchor="middle" x="883" y="-518.3" font-family="Times,serif" font-size="14.00" fill="#000000">P</text>
</g>
<!-- W&#45;&gt;P -->
<g id="edge6" class="edge">
<title>W&#45;&gt;P</title>
<path fill="none" stroke="#000000" d="M541.894,-592.383C599.2388,-588.3426 737.251,-575.4515 847,-540 848.8951,-539.3878 850.8144,-538.6889 852.7291,-537.9301"/>
<polygon fill="#000000" stroke="#000000" points="854.4071,-541.0147 862.1299,-533.7615 851.5695,-534.6156 854.4071,-541.0147"/>
</g>
<!-- A -->
<g id="node20" class="node">
<title>A</title>
<ellipse fill="none" stroke="#000000" cx="993" cy="-522" rx="27" ry="18"/>
<text text-anchor="middle" x="993" y="-518.3" font-family="Times,serif" font-size="14.00" fill="#000000">A</text>
</g>
<!-- W&#45;&gt;A -->
<g id="edge57" class="edge">
<title>W&#45;&gt;A</title>
<path fill="none" stroke="#000000" d="M542.1066,-591.3778C607.3525,-584.8489 778.1704,-566.4631 919,-540 931.7914,-537.5964 945.687,-534.3798 957.9464,-531.3309"/>
<polygon fill="#000000" stroke="#000000" points="958.9674,-534.6829 967.7993,-528.8308 957.2457,-527.8979 958.9674,-534.6829"/>
</g>
<!-- W&#45;&gt;Y -->
<g id="edge88" class="edge">
<title>W&#45;&gt;Y</title>
<path fill="none" stroke="#000000" d="M507.219,-576.7117C498.7413,-558.3146 484.4486,-528.5369 470,-504 464.1443,-494.0556 457.1123,-483.5039 450.7587,-474.3912"/>
<polygon fill="#000000" stroke="#000000" points="453.5689,-472.3033 444.9354,-466.1622 447.8549,-476.3468 453.5689,-472.3033"/>
</g>
<!-- V -->
<g id="node4" class="node">
<title>V</title>
<ellipse fill="none" stroke="#000000" cx="363" cy="-594" rx="27" ry="18"/>
<text text-anchor="middle" x="363" y="-590.3" font-family="Times,serif" font-size="14.00" fill="#000000">V</text>
</g>
<!-- S&#45;&gt;V -->
<g id="edge2" class="edge">
<title>S&#45;&gt;V</title>
<path fill="none" stroke="#000000" d="M279.4469,-792.3238C295.3507,-754.5741 332.7199,-665.8736 351.623,-621.0047"/>
<polygon fill="#000000" stroke="#000000" points="354.9207,-622.1919 355.5778,-611.6175 348.4698,-619.4742 354.9207,-622.1919"/>
</g>
<!-- B -->
<g id="node6" class="node">
<title>B</title>
<ellipse fill="none" stroke="#000000" cx="416" cy="-306" rx="27" ry="18"/>
<text text-anchor="middle" x="416" y="-302.3" font-family="Times,serif" font-size="14.00" fill="#000000">B</text>
</g>
<!-- S&#45;&gt;B -->
<g id="edge39" class="edge">
<title>S&#45;&gt;B</title>
<path fill="none" stroke="#000000" d="M246.7439,-803.2932C224.0134,-795.8071 191.8271,-781.2862 176,-756 116.4984,-660.9372 123.7615,-609.0606 163,-504 192.6519,-424.6074 219.3991,-409.7628 288,-360 316.391,-339.4053 353.8305,-324.7834 380.8771,-315.9942"/>
<polygon fill="#000000" stroke="#000000" points="382.2019,-319.2467 390.6935,-312.9109 380.1042,-312.5684 382.2019,-319.2467"/>
</g>
<!-- D -->
<g id="node10" class="node">
<title>D</title>
<ellipse fill="none" stroke="#000000" cx="1451" cy="-594" rx="27" ry="18"/>
<text text-anchor="middle" x="1451" y="-590.3" font-family="Times,serif" font-size="14.00" fill="#000000">D</text>
</g>
<!-- S&#45;&gt;D -->
<g id="edge29" class="edge">
<title>S&#45;&gt;D</title>
<path fill="none" stroke="#000000" d="M299.3782,-809.3013C429.3764,-805.8349 985.0655,-789.3033 1155,-756 1253.0634,-736.7818 1284.1896,-738.4206 1368,-684 1394.6732,-666.6803 1418.5204,-638.8616 1433.7332,-618.7333"/>
<polygon fill="#000000" stroke="#000000" points="1436.5899,-620.7565 1439.7074,-610.6307 1430.9558,-616.6023 1436.5899,-620.7565"/>
</g>
<!-- J -->
<g id="node12" class="node">
<title>J</title>
<ellipse fill="none" stroke="#000000" cx="1119" cy="-738" rx="27" ry="18"/>
<text text-anchor="middle" x="1119" y="-734.3" font-family="Times,serif" font-size="14.00" fill="#000000">J</text>
</g>
<!-- S&#45;&gt;J -->
<g id="edge60" class="edge">
<title>S&#45;&gt;J</title>
<path fill="none" stroke="#000000" d="M299.2219,-807.686C423.6702,-797.1071 938.5211,-753.3418 1081.8303,-741.1596"/>
<polygon fill="#000000" stroke="#000000" points="1082.2117,-744.6399 1091.8793,-740.3054 1081.6188,-737.6651 1082.2117,-744.6399"/>
</g>
<!-- C -->
<g id="node24" class="node">
<title>C</title>
<ellipse fill="none" stroke="#000000" cx="771" cy="-234" rx="27" ry="18"/>
<text text-anchor="middle" x="771" y="-230.3" font-family="Times,serif" font-size="14.00" fill="#000000">C</text>
</g>
<!-- S&#45;&gt;C -->
<g id="edge83" class="edge">
<title>S&#45;&gt;C</title>
<path fill="none" stroke="#000000" d="M256.5764,-795.1964C232.823,-770.7236 190,-719.223 190,-666 190,-666 190,-666 190,-594 190,-433.9161 242.0623,-369.2407 380,-288 439.5871,-252.9052 648.2556,-239.5828 733.894,-235.5161"/>
<polygon fill="#000000" stroke="#000000" points="734.1189,-239.0096 743.9479,-235.0547 733.7979,-232.017 734.1189,-239.0096"/>
</g>
<!-- S&#45;&gt;Y -->
<g id="edge89" class="edge">
<title>S&#45;&gt;Y</title>
<path fill="none" stroke="#000000" d="M273.4366,-791.7299C277.2324,-751.0132 289.9234,-650.544 327,-576 347.6771,-534.4279 384.7859,-494.8874 409.1524,-471.5351"/>
<polygon fill="#000000" stroke="#000000" points="411.6994,-473.9442 416.5789,-464.5399 406.8998,-468.8487 411.6994,-473.9442"/>
</g>
<!-- G -->
<g id="node26" class="node">
<title>G</title>
<ellipse fill="none" stroke="#000000" cx="1145" cy="-90" rx="27" ry="18"/>
<text text-anchor="middle" x="1145" y="-86.3" font-family="Times,serif" font-size="14.00" fill="#000000">G</text>
</g>
<!-- S&#45;&gt;G -->
<g id="edge76" class="edge">
<title>S&#45;&gt;G</title>
<path fill="none" stroke="#000000" d="M299.3327,-809.8145C436.9996,-808.6775 1055.1588,-801.1041 1241,-756 1317.1736,-737.5125 1335.657,-725.7469 1402,-684 1470.3955,-640.9616 1658,-455.0238 1658,-450 1658,-450 1658,-450 1658,-234 1658,-135.1136 1300.1985,-100.9609 1182.2285,-92.3878"/>
<polygon fill="#000000" stroke="#000000" points="1182.4408,-88.8942 1172.2189,-91.6804 1181.9473,-95.8768 1182.4408,-88.8942"/>
</g>
<!-- V&#45;&gt;B -->
<g id="edge97" class="edge">
<title>V&#45;&gt;B</title>
<path fill="none" stroke="#000000" d="M358.7378,-576.1153C350.0263,-535.762 333.4552,-435.2908 364,-360 369.3278,-346.8674 379.5313,-335.1368 389.4989,-325.9915"/>
<polygon fill="#000000" stroke="#000000" points="392.0516,-328.4122 397.3444,-319.2341 387.4833,-323.1083 392.0516,-328.4122"/>
</g>
<!-- V&#45;&gt;R -->
<g id="edge17" class="edge">
<title>V&#45;&gt;R</title>
<path fill="none" stroke="#000000" d="M342.5828,-582.0221C296.4197,-553.2281 188,-475.2498 188,-378 188,-378 188,-378 188,-306 188,-231.3893 443.3595,-183.0634 539.7525,-167.4792"/>
<polygon fill="#000000" stroke="#000000" points="540.3106,-170.9345 549.6362,-165.9063 539.2104,-164.0215 540.3106,-170.9345"/>
</g>
<!-- V&#45;&gt;C -->
<g id="edge47" class="edge">
<title>V&#45;&gt;C</title>
<path fill="none" stroke="#000000" d="M379.4994,-579.4417C442.9335,-523.4705 671.3198,-321.9531 746.6822,-255.4569"/>
<polygon fill="#000000" stroke="#000000" points="749.1126,-257.9801 754.2953,-248.7395 744.4812,-252.7313 749.1126,-257.9801"/>
</g>
<!-- V&#45;&gt;Y -->
<g id="edge50" class="edge">
<title>V&#45;&gt;Y</title>
<path fill="none" stroke="#000000" d="M371.4436,-576.6302C383.5315,-551.7638 405.8715,-505.8072 420.0555,-476.6288"/>
<polygon fill="#000000" stroke="#000000" points="423.3022,-477.9552 424.5264,-467.4314 417.0066,-474.8949 423.3022,-477.9552"/>
</g>
<!-- Z -->
<g id="node5" class="node">
<title>Z</title>
<ellipse fill="none" stroke="#000000" cx="811" cy="-522" rx="27" ry="18"/>
<text text-anchor="middle" x="811" y="-518.3" font-family="Times,serif" font-size="14.00" fill="#000000">Z</text>
</g>
<!-- Z&#45;&gt;B -->
<g id="edge3" class="edge">
<title>Z&#45;&gt;B</title>
<path fill="none" stroke="#000000" d="M790.042,-510.5394C724.4253,-474.6579 522.7573,-364.3787 446.0444,-322.4293"/>
<polygon fill="#000000" stroke="#000000" points="447.3607,-319.16 436.9075,-317.433 444.0021,-325.3017 447.3607,-319.16"/>
</g>
<!-- T -->
<g id="node21" class="node">
<title>T</title>
<ellipse fill="none" stroke="#000000" cx="826" cy="-378" rx="27" ry="18"/>
<text text-anchor="middle" x="826" y="-374.3" font-family="Times,serif" font-size="14.00" fill="#000000">T</text>
</g>
<!-- Z&#45;&gt;T -->
<g id="edge68" class="edge">
<title>Z&#45;&gt;T</title>
<path fill="none" stroke="#000000" d="M812.8998,-503.7623C815.4582,-479.201 820.0367,-435.2474 823.0465,-406.3541"/>
<polygon fill="#000000" stroke="#000000" points="826.5607,-406.3985 824.1157,-396.0896 819.5984,-405.6731 826.5607,-406.3985"/>
</g>
<!-- M -->
<g id="node23" class="node">
<title>M</title>
<ellipse fill="none" stroke="#000000" cx="995" cy="-450" rx="27" ry="18"/>
<text text-anchor="middle" x="995" y="-446.3" font-family="Times,serif" font-size="14.00" fill="#000000">M</text>
</g>
<!-- Z&#45;&gt;M -->
<g id="edge31" class="edge">
<title>Z&#45;&gt;M</title>
<path fill="none" stroke="#000000" d="M832.5139,-510.7445C837.2394,-508.4128 842.251,-506.0458 847,-504 885.3665,-487.4727 930.6338,-471.4449 960.911,-461.2035"/>
<polygon fill="#000000" stroke="#000000" points="962.2065,-464.4606 970.5726,-457.9598 959.9786,-457.8246 962.2065,-464.4606"/>
</g>
<!-- K -->
<g id="node16" class="node">
<title>K</title>
<ellipse fill="none" stroke="#000000" cx="1145" cy="-18" rx="27" ry="18"/>
<text text-anchor="middle" x="1145" y="-14.3" font-family="Times,serif" font-size="14.00" fill="#000000">K</text>
</g>
<!-- B&#45;&gt;K -->
<g id="edge82" class="edge">
<title>B&#45;&gt;K</title>
<path fill="none" stroke="#000000" d="M425.0389,-289.0327C442.9895,-256.7652 486.0936,-186.0338 540,-144 603.7395,-94.2987 628.992,-93.1586 707,-72 851.7789,-32.7308 1031.3018,-21.9421 1107.7379,-19.0395"/>
<polygon fill="#000000" stroke="#000000" points="1107.9558,-22.534 1117.8248,-18.6801 1107.7065,-15.5385 1107.9558,-22.534"/>
</g>
<!-- B&#45;&gt;C -->
<g id="edge22" class="edge">
<title>B&#45;&gt;C</title>
<path fill="none" stroke="#000000" d="M437.7576,-295.2753C443.8697,-292.5874 450.5975,-289.9245 457,-288 554.6959,-258.6335 674.5944,-243.5532 734.001,-237.4163"/>
<polygon fill="#000000" stroke="#000000" points="734.4305,-240.8909 744.0295,-236.4065 733.7291,-233.9261 734.4305,-240.8909"/>
</g>
<!-- F&#45;&gt;R -->
<g id="edge4" class="edge">
<title>F&#45;&gt;R</title>
<path fill="none" stroke="#000000" d="M58.6529,-719.6604C63.2755,-666.7297 76,-509.1197 76,-378 76,-378 76,-378 76,-306 76,-209.641 423.2434,-173.8791 538.9736,-164.6361"/>
<polygon fill="#000000" stroke="#000000" points="539.4194,-168.1121 549.1178,-163.847 538.8765,-161.1332 539.4194,-168.1121"/>
</g>
<!-- R&#45;&gt;K -->
<g id="edge24" class="edge">
<title>R&#45;&gt;K</title>
<path fill="none" stroke="#000000" d="M598.7455,-151.9566C641.3475,-133.5209 736.4201,-94.1455 820,-72 922.4898,-44.8441 1046.9587,-28.702 1107.8386,-21.862"/>
<polygon fill="#000000" stroke="#000000" points="1108.5424,-25.3056 1118.0983,-20.7301 1107.7748,-18.3478 1108.5424,-25.3056"/>
</g>
<!-- R&#45;&gt;G -->
<g id="edge101" class="edge">
<title>R&#45;&gt;G</title>
<path fill="none" stroke="#000000" d="M602.6809,-158.6239C695.1763,-146.9197 1002.2077,-108.0686 1108.447,-94.6253"/>
<polygon fill="#000000" stroke="#000000" points="1108.8954,-98.0966 1118.3769,-93.3688 1108.0166,-91.152 1108.8954,-98.0966"/>
</g>
<!-- I -->
<g id="node9" class="node">
<title>I</title>
<ellipse fill="none" stroke="#000000" cx="1294" cy="-810" rx="27" ry="18"/>
<text text-anchor="middle" x="1294" y="-806.3" font-family="Times,serif" font-size="14.00" fill="#000000">I</text>
</g>
<!-- I&#45;&gt;B -->
<g id="edge71" class="edge">
<title>I&#45;&gt;B</title>
<path fill="none" stroke="#000000" d="M1266.9406,-807.9642C1120.9879,-796.7738 431.4498,-741.1674 357,-684 242.752,-596.2729 280.3258,-486.6195 349,-360 357.4136,-344.4873 372.3279,-331.7932 385.9524,-322.6194"/>
<polygon fill="#000000" stroke="#000000" points="388.0717,-325.4197 394.638,-317.105 384.3198,-319.5101 388.0717,-325.4197"/>
</g>
<!-- I&#45;&gt;D -->
<g id="edge5" class="edge">
<title>I&#45;&gt;D</title>
<path fill="none" stroke="#000000" d="M1319.6152,-804.2264C1345.1586,-797.149 1383.7108,-782.6655 1406,-756 1438.3194,-717.3351 1447.5132,-657.1445 1450.0737,-622.0453"/>
<polygon fill="#000000" stroke="#000000" points="1453.5706,-622.2007 1450.6737,-612.0096 1446.5831,-621.7829 1453.5706,-622.2007"/>
</g>
<!-- I&#45;&gt;J -->
<g id="edge66" class="edge">
<title>I&#45;&gt;J</title>
<path fill="none" stroke="#000000" d="M1270.7614,-800.439C1240.2127,-787.8704 1186.3739,-765.7196 1151.7175,-751.4609"/>
<polygon fill="#000000" stroke="#000000" points="1152.6356,-748.0541 1142.056,-747.4859 1149.9722,-754.5276 1152.6356,-748.0541"/>
</g>
<!-- I&#45;&gt;H -->
<g id="edge52" class="edge">
<title>I&#45;&gt;H</title>
<path fill="none" stroke="#000000" d="M1319.9954,-805.1172C1376.6055,-792.8222 1506,-754.9865 1506,-666 1506,-666 1506,-666 1506,-594 1506,-506.9706 1465.0837,-484.9298 1396,-432 1360.435,-404.7511 1310.1333,-390.645 1276.3554,-383.7913"/>
<polygon fill="#000000" stroke="#000000" points="1276.9177,-380.3355 1266.4376,-381.8906 1275.6001,-387.2104 1276.9177,-380.3355"/>
</g>
<!-- D&#45;&gt;K -->
<g id="edge10" class="edge">
<title>D&#45;&gt;K</title>
<path fill="none" stroke="#000000" d="M1475.3872,-585.8675C1537.3571,-563.4945 1696,-494.8122 1696,-378 1696,-378 1696,-378 1696,-162 1696,-102.2061 1650.4501,-96.7082 1596,-72 1522.2736,-38.5446 1276.6644,-24.0168 1182.3376,-19.5768"/>
<polygon fill="#000000" stroke="#000000" points="1182.2743,-16.0703 1172.1242,-19.1079 1181.9532,-23.063 1182.2743,-16.0703"/>
</g>
<!-- L -->
<g id="node18" class="node">
<title>L</title>
<ellipse fill="none" stroke="#000000" cx="1202" cy="-522" rx="27" ry="18"/>
<text text-anchor="middle" x="1202" y="-518.3" font-family="Times,serif" font-size="14.00" fill="#000000">L</text>
</g>
<!-- D&#45;&gt;L -->
<g id="edge48" class="edge">
<title>D&#45;&gt;L</title>
<path fill="none" stroke="#000000" d="M1426.2146,-586.8331C1381.6777,-573.955 1288.0102,-546.8704 1236.9673,-532.111"/>
<polygon fill="#000000" stroke="#000000" points="1237.6334,-528.6603 1227.0547,-529.2447 1235.6889,-535.3848 1237.6334,-528.6603"/>
</g>
<!-- D&#45;&gt;H -->
<g id="edge80" class="edge">
<title>D&#45;&gt;H</title>
<path fill="none" stroke="#000000" d="M1446.2946,-576.1718C1436.7933,-543.3989 1412.3508,-473.174 1368,-432 1342.0247,-407.8853 1303.6928,-393.6621 1275.7498,-385.9204"/>
<polygon fill="#000000" stroke="#000000" points="1276.5279,-382.5062 1265.9671,-383.3552 1274.7523,-389.2773 1276.5279,-382.5062"/>
</g>
<!-- D&#45;&gt;G -->
<g id="edge72" class="edge">
<title>D&#45;&gt;G</title>
<path fill="none" stroke="#000000" d="M1462.6416,-577.3639C1478.34,-554.0607 1505.9443,-509.8468 1520,-468 1543.1753,-399.0023 1544,-378.7858 1544,-306 1544,-306 1544,-306 1544,-234 1544,-157.3494 1280.1795,-110.1414 1181.587,-95.1756"/>
<polygon fill="#000000" stroke="#000000" points="1181.8957,-91.683 1171.4885,-93.6682 1180.8622,-98.6062 1181.8957,-91.683"/>
</g>
<!-- P&#45;&gt;B -->
<g id="edge67" class="edge">
<title>P&#45;&gt;B</title>
<path fill="none" stroke="#000000" d="M861.9072,-510.3698C811.0257,-482.541 677.1534,-410.6656 561,-360 523.5041,-343.6444 479.308,-327.6389 449.6515,-317.3546"/>
<polygon fill="#000000" stroke="#000000" points="450.7768,-314.0405 440.1821,-314.094 448.4978,-320.6591 450.7768,-314.0405"/>
</g>
<!-- N -->
<g id="node14" class="node">
<title>N</title>
<ellipse fill="none" stroke="#000000" cx="885" cy="-450" rx="27" ry="18"/>
<text text-anchor="middle" x="885" y="-446.3" font-family="Times,serif" font-size="14.00" fill="#000000">N</text>
</g>
<!-- P&#45;&gt;N -->
<g id="edge8" class="edge">
<title>P&#45;&gt;N</title>
<path fill="none" stroke="#000000" d="M883.5047,-503.8314C883.7186,-496.131 883.9729,-486.9743 884.2106,-478.4166"/>
<polygon fill="#000000" stroke="#000000" points="887.7094,-478.5066 884.4885,-468.4133 880.7121,-478.3122 887.7094,-478.5066"/>
</g>
<!-- P&#45;&gt;M -->
<g id="edge91" class="edge">
<title>P&#45;&gt;M</title>
<path fill="none" stroke="#000000" d="M902.5089,-509.4586C920.3067,-498.0171 946.8145,-480.9764 966.8953,-468.0673"/>
<polygon fill="#000000" stroke="#000000" points="968.8197,-470.9911 975.3389,-462.6393 965.0344,-465.1028 968.8197,-470.9911"/>
</g>
<!-- J&#45;&gt;V -->
<g id="edge99" class="edge">
<title>J&#45;&gt;V</title>
<path fill="none" stroke="#000000" d="M1091.9662,-736.9604C961.8156,-731.8389 404.9287,-708.5486 378,-684 361.3295,-668.8029 358.5641,-642.6636 359.3923,-622.4584"/>
<polygon fill="#000000" stroke="#000000" points="362.9009,-622.4627 360.1272,-612.2374 355.9189,-621.9606 362.9009,-622.4627"/>
</g>
<!-- J&#45;&gt;D -->
<g id="edge87" class="edge">
<title>J&#45;&gt;D</title>
<path fill="none" stroke="#000000" d="M1145.8034,-734.5791C1187.0351,-728.573 1267.773,-713.831 1330,-684 1354.0463,-672.4724 1356.6139,-663.9294 1378,-648 1393.3904,-636.5365 1410.6508,-623.7647 1424.5226,-613.521"/>
<polygon fill="#000000" stroke="#000000" points="1426.7076,-616.2584 1432.6748,-607.5038 1422.5506,-610.6264 1426.7076,-616.2584"/>
</g>
<!-- E -->
<g id="node13" class="node">
<title>E</title>
<ellipse fill="none" stroke="#000000" cx="1150" cy="-594" rx="27" ry="18"/>
<text text-anchor="middle" x="1150" y="-590.3" font-family="Times,serif" font-size="14.00" fill="#000000">E</text>
</g>
<!-- J&#45;&gt;E -->
<g id="edge7" class="edge">
<title>J&#45;&gt;E</title>
<path fill="none" stroke="#000000" d="M1122.8635,-720.0535C1128.1542,-695.4774 1137.7075,-651.1008 1143.9512,-622.0974"/>
<polygon fill="#000000" stroke="#000000" points="1147.4048,-622.6854 1146.0878,-612.1727 1140.5616,-621.2121 1147.4048,-622.6854"/>
</g>
<!-- Q -->
<g id="node15" class="node">
<title>Q</title>
<ellipse fill="none" stroke="#000000" cx="1040" cy="-666" rx="27" ry="18"/>
<text text-anchor="middle" x="1040" y="-662.3" font-family="Times,serif" font-size="14.00" fill="#000000">Q</text>
</g>
<!-- J&#45;&gt;Q -->
<g id="edge35" class="edge">
<title>J&#45;&gt;Q</title>
<path fill="none" stroke="#000000" d="M1103.0132,-723.4297C1091.6628,-713.0851 1076.2398,-699.0286 1063.4933,-687.4116"/>
<polygon fill="#000000" stroke="#000000" points="1065.7116,-684.6978 1055.9631,-680.5486 1060.9964,-689.8715 1065.7116,-684.6978"/>
</g>
<!-- J&#45;&gt;M -->
<g id="edge69" class="edge">
<title>J&#45;&gt;M</title>
<path fill="none" stroke="#000000" d="M1116.3671,-719.8207C1109.8275,-678.864 1090.1594,-577.2382 1047,-504 1039.8048,-491.7902 1029.3224,-480.1974 1019.6511,-470.9057"/>
<polygon fill="#000000" stroke="#000000" points="1021.8694,-468.1902 1012.1471,-463.9795 1017.1216,-473.334 1021.8694,-468.1902"/>
</g>
<!-- J&#45;&gt;C -->
<g id="edge55" class="edge">
<title>J&#45;&gt;C</title>
<path fill="none" stroke="#000000" d="M1137.239,-724.6631C1176.125,-695.368 1267.9519,-621.486 1321,-540 1347.9939,-498.5352 1366.9341,-477.711 1348,-432 1330.6817,-390.19 1315.3859,-382.2878 1276,-360 1117.4625,-270.2864 895.458,-243.7326 808.253,-236.4979"/>
<polygon fill="#000000" stroke="#000000" points="808.3044,-232.9911 798.0591,-235.6903 807.7514,-239.9693 808.3044,-232.9911"/>
</g>
<!-- E&#45;&gt;B -->
<g id="edge12" class="edge">
<title>E&#45;&gt;B</title>
<path fill="none" stroke="#000000" d="M1122.964,-592.4751C1034.6111,-587.2561 755.1953,-568.8226 670,-540 611.0835,-520.0679 597.165,-508.5451 550,-468 501.2169,-426.0639 456.0898,-365.0839 432.7078,-331.1602"/>
<polygon fill="#000000" stroke="#000000" points="435.4976,-329.0387 426.9733,-322.7468 429.7134,-332.9812 435.4976,-329.0387"/>
</g>
<!-- E&#45;&gt;R -->
<g id="edge30" class="edge">
<title>E&#45;&gt;R</title>
<path fill="none" stroke="#000000" d="M1123.0989,-592.3711C1031.5841,-586.6104 736.1474,-566.1345 703,-540 591.3057,-451.9365 577.0929,-261.7585 575.8349,-190.0909"/>
<polygon fill="#000000" stroke="#000000" points="579.3341,-189.9843 575.7321,-180.0206 572.3345,-190.0558 579.3341,-189.9843"/>
</g>
<!-- E&#45;&gt;K -->
<g id="edge42" class="edge">
<title>E&#45;&gt;K</title>
<path fill="none" stroke="#000000" d="M1173.911,-585.3409C1253.7306,-555.7088 1506,-455.895 1506,-378 1506,-378 1506,-378 1506,-162 1506,-92.5614 1272.6577,-41.6984 1181.1764,-24.4258"/>
<polygon fill="#000000" stroke="#000000" points="1181.7246,-20.9679 1171.253,-22.5794 1180.444,-27.8497 1181.7246,-20.9679"/>
</g>
<!-- E&#45;&gt;L -->
<g id="edge45" class="edge">
<title>E&#45;&gt;L</title>
<path fill="none" stroke="#000000" d="M1161.7996,-577.6621C1168.4481,-568.4564 1176.8837,-556.7764 1184.3089,-546.4953"/>
<polygon fill="#000000" stroke="#000000" points="1187.2295,-548.4293 1190.2471,-538.2733 1181.5548,-544.3308 1187.2295,-548.4293"/>
</g>
<!-- E&#45;&gt;G -->
<g id="edge64" class="edge">
<title>E&#45;&gt;G</title>
<path fill="none" stroke="#000000" d="M1172.2879,-583.4841C1195.8899,-571.834 1230.7344,-552.9829 1238,-540 1245.8137,-526.0377 1240.4305,-519.8143 1238,-504 1230.3557,-454.2616 1216.3394,-444.7861 1204,-396 1178.379,-294.7026 1157.8371,-172.0936 1149.2923,-117.9772"/>
<polygon fill="#000000" stroke="#000000" points="1152.7497,-117.4322 1147.7453,-108.0938 1145.8339,-118.5147 1152.7497,-117.4322"/>
</g>
<!-- N&#45;&gt;H -->
<g id="edge65" class="edge">
<title>N&#45;&gt;H</title>
<path fill="none" stroke="#000000" d="M910.2736,-443.5291C924.5406,-439.9576 942.7213,-435.5418 959,-432 1046.3751,-412.9897 1149.8011,-394.0158 1203.5095,-384.4256"/>
<polygon fill="#000000" stroke="#000000" points="1204.3367,-387.8335 1213.5688,-382.6354 1203.1102,-380.9417 1204.3367,-387.8335"/>
</g>
<!-- N&#45;&gt;T -->
<g id="edge51" class="edge">
<title>N&#45;&gt;T</title>
<path fill="none" stroke="#000000" d="M871.906,-434.0209C864.1911,-424.6061 854.2811,-412.5126 845.6445,-401.973"/>
<polygon fill="#000000" stroke="#000000" points="848.1029,-399.4509 839.0574,-393.9345 842.6885,-403.8877 848.1029,-399.4509"/>
</g>
<!-- N&#45;&gt;C -->
<g id="edge18" class="edge">
<title>N&#45;&gt;C</title>
<path fill="none" stroke="#000000" d="M859.8927,-442.8617C837.6454,-435.1362 806.246,-420.5103 790,-396 763.248,-355.6392 763.7569,-296.9195 767.0445,-262.3734"/>
<polygon fill="#000000" stroke="#000000" points="770.5645,-262.3832 768.1785,-252.0605 763.6064,-261.618 770.5645,-262.3832"/>
</g>
<!-- N&#45;&gt;G -->
<g id="edge43" class="edge">
<title>N&#45;&gt;G</title>
<path fill="none" stroke="#000000" d="M895.2259,-433.0944C924.14,-385.747 1009.8616,-248.4664 1094,-144 1102.8078,-133.0642 1113.35,-121.6616 1122.5575,-112.1678"/>
<polygon fill="#000000" stroke="#000000" points="1125.0814,-114.593 1129.597,-105.0086 1120.0901,-109.6852 1125.0814,-114.593"/>
</g>
<!-- Q&#45;&gt;V -->
<g id="edge9" class="edge">
<title>Q&#45;&gt;V</title>
<path fill="none" stroke="#000000" d="M1012.8141,-664.8802C906.9262,-660.3354 522.1301,-642.0624 404,-612 400.7605,-611.1756 397.4525,-610.1203 394.1905,-608.9349"/>
<polygon fill="#000000" stroke="#000000" points="395.2397,-605.5842 384.6564,-605.0894 392.6213,-612.076 395.2397,-605.5842"/>
</g>
<!-- Q&#45;&gt;B -->
<g id="edge63" class="edge">
<title>Q&#45;&gt;B</title>
<path fill="none" stroke="#000000" d="M1012.8802,-664.8479C906.8863,-660.1488 524.2258,-641.2797 479,-612 405.2052,-564.2243 390.4276,-519.6641 397,-432 399.5471,-398.027 405.9054,-359.3312 410.5678,-333.8888"/>
<polygon fill="#000000" stroke="#000000" points="414.0474,-334.3219 412.4461,-323.8487 407.1668,-333.0346 414.0474,-334.3219"/>
</g>
<!-- Q&#45;&gt;D -->
<g id="edge41" class="edge">
<title>Q&#45;&gt;D</title>
<path fill="none" stroke="#000000" d="M1066.9893,-664.5459C1128.7908,-660.6826 1284.8862,-647.883 1410,-612 1413.2132,-611.0784 1416.5037,-609.9586 1419.7549,-608.7332"/>
<polygon fill="#000000" stroke="#000000" points="1421.3479,-611.8629 1429.274,-604.8324 1418.6936,-605.3857 1421.3479,-611.8629"/>
</g>
<!-- Q&#45;&gt;K -->
<g id="edge26" class="edge">
<title>Q&#45;&gt;K</title>
<path fill="none" stroke="#000000" d="M1066.5087,-661.8439C1175.3258,-643.1425 1582,-556.4944 1582,-306 1582,-306 1582,-306 1582,-162 1582,-78.0139 1287.1572,-34.8437 1181.8392,-22.1022"/>
<polygon fill="#000000" stroke="#000000" points="1182.0212,-18.5994 1171.6785,-20.8967 1181.1964,-25.5506 1182.0212,-18.5994"/>
</g>
<!-- Q&#45;&gt;H -->
<g id="edge33" class="edge">
<title>Q&#45;&gt;H</title>
<path fill="none" stroke="#000000" d="M1065.6598,-659.9543C1116.0556,-646.7988 1228.5641,-610.9019 1292,-540 1325.9288,-502.0781 1355.0707,-476.2797 1330,-432 1318.1184,-411.0149 1294.4686,-397.2952 1274.3936,-388.9374"/>
<polygon fill="#000000" stroke="#000000" points="1275.4821,-385.6056 1264.893,-385.2568 1272.9533,-392.1329 1275.4821,-385.6056"/>
</g>
<!-- U -->
<g id="node22" class="node">
<title>U</title>
<ellipse fill="none" stroke="#000000" cx="739" cy="-522" rx="27" ry="18"/>
<text text-anchor="middle" x="739" y="-518.3" font-family="Times,serif" font-size="14.00" fill="#000000">U</text>
</g>
<!-- Q&#45;&gt;U -->
<g id="edge37" class="edge">
<title>Q&#45;&gt;U</title>
<path fill="none" stroke="#000000" d="M1017.5926,-655.529C971.8567,-634.1162 864.5155,-583.6546 775,-540 773.2571,-539.15 771.4691,-538.2728 769.6662,-537.3843"/>
<polygon fill="#000000" stroke="#000000" points="771.1813,-534.229 760.6676,-532.9206 768.0707,-540.4999 771.1813,-534.229"/>
</g>
<!-- Q&#45;&gt;M -->
<g id="edge96" class="edge">
<title>Q&#45;&gt;M</title>
<path fill="none" stroke="#000000" d="M1041.5913,-647.9616C1043.6696,-617.4603 1045.3249,-554.1234 1029,-504 1025.6035,-493.5714 1019.7492,-483.133 1013.8461,-474.2518"/>
<polygon fill="#000000" stroke="#000000" points="1016.6265,-472.1209 1008.0158,-465.9478 1010.8975,-476.1433 1016.6265,-472.1209"/>
</g>
<!-- Q&#45;&gt;Y -->
<g id="edge93" class="edge">
<title>Q&#45;&gt;Y</title>
<path fill="none" stroke="#000000" d="M1013.8964,-660.8698C944.0404,-646.6676 747.7012,-603.6353 594,-540 545.2594,-519.8204 492.5781,-488.343 461.2116,-468.4647"/>
<polygon fill="#000000" stroke="#000000" points="462.8805,-465.3775 452.5701,-462.9391 459.1095,-471.275 462.8805,-465.3775"/>
</g>
<!-- X -->
<g id="node17" class="node">
<title>X</title>
<ellipse fill="none" stroke="#000000" cx="414" cy="-666" rx="27" ry="18"/>
<text text-anchor="middle" x="414" y="-662.3" font-family="Times,serif" font-size="14.00" fill="#000000">X</text>
</g>
<!-- X&#45;&gt;V -->
<g id="edge36" class="edge">
<title>X&#45;&gt;V</title>
<path fill="none" stroke="#000000" d="M402.4273,-649.6621C396.0628,-640.6768 388.0285,-629.3343 380.8756,-619.2362"/>
<polygon fill="#000000" stroke="#000000" points="383.5171,-616.9101 374.8808,-610.7729 377.8049,-620.9562 383.5171,-616.9101"/>
</g>
<!-- X&#45;&gt;E -->
<g id="edge59" class="edge">
<title>X&#45;&gt;E</title>
<path fill="none" stroke="#000000" d="M441.0675,-663.3521C553.4461,-652.3585 983.3912,-610.2987 1112.881,-597.6312"/>
<polygon fill="#000000" stroke="#000000" points="1113.464,-601.091 1123.0757,-596.6339 1112.7825,-594.1242 1113.464,-601.091"/>
</g>
<!-- X&#45;&gt;N -->
<g id="edge11" class="edge">
<title>X&#45;&gt;N</title>
<path fill="none" stroke="#000000" d="M441.0556,-663.5301C537.0179,-654.1596 858.5762,-617.3523 919,-540 934.4056,-520.2784 920.1322,-492.8133 905.6431,-473.424"/>
<polygon fill="#000000" stroke="#000000" points="908.242,-471.068 899.292,-465.3981 902.7527,-475.4118 908.242,-471.068"/>
</g>
<!-- X&#45;&gt;K -->
<g id="edge77" class="edge">
<title>X&#45;&gt;K</title>
<path fill="none" stroke="#000000" d="M388.4516,-659.885C303.824,-637.9571 38,-554.9924 38,-378 38,-378 38,-378 38,-162 38,-51.6184 914.6853,-23.6567 1107.7068,-18.838"/>
<polygon fill="#000000" stroke="#000000" points="1107.9991,-22.332 1117.9107,-18.5891 1107.8283,-15.3341 1107.9991,-22.332"/>
</g>
<!-- X&#45;&gt;T -->
<g id="edge73" class="edge">
<title>X&#45;&gt;T</title>
<path fill="none" stroke="#000000" d="M423.1257,-648.9688C434.2586,-629.4249 454.6389,-597.3311 479,-576 504.4323,-553.7309 516.4776,-556.4665 546,-540 638.3473,-488.4922 746.3146,-425.1204 796.9731,-395.1976"/>
<polygon fill="#000000" stroke="#000000" points="798.9212,-398.1118 805.7485,-390.01 795.359,-392.0859 798.9212,-398.1118"/>
</g>
<!-- L&#45;&gt;H -->
<g id="edge13" class="edge">
<title>L&#45;&gt;H</title>
<path fill="none" stroke="#000000" d="M1206.7359,-504.0535C1213.2213,-479.4774 1224.9317,-435.1008 1232.5854,-406.0974"/>
<polygon fill="#000000" stroke="#000000" points="1236.037,-406.7348 1235.2044,-396.1727 1229.2687,-404.9487 1236.037,-406.7348"/>
</g>
<!-- L&#45;&gt;T -->
<g id="edge44" class="edge">
<title>L&#45;&gt;T</title>
<path fill="none" stroke="#000000" d="M1182.1733,-509.6489C1151.0123,-490.6849 1088.216,-454.2592 1031,-432 973.609,-409.6727 903.6657,-393.4634 862.095,-384.9126"/>
<polygon fill="#000000" stroke="#000000" points="862.6577,-381.4556 852.1624,-382.9046 861.2706,-388.3168 862.6577,-381.4556"/>
</g>
<!-- L&#45;&gt;M -->
<g id="edge78" class="edge">
<title>L&#45;&gt;M</title>
<path fill="none" stroke="#000000" d="M1176.9831,-514.7081C1144.255,-504.9765 1085.2755,-486.7783 1036,-468 1032.949,-466.8373 1029.7956,-465.5716 1026.6554,-464.2681"/>
<polygon fill="#000000" stroke="#000000" points="1027.9614,-461.02 1017.3904,-460.3087 1025.2106,-467.4569 1027.9614,-461.02"/>
</g>
<!-- L&#45;&gt;C -->
<g id="edge40" class="edge">
<title>L&#45;&gt;C</title>
<path fill="none" stroke="#000000" d="M1184.5689,-508.1544C1161.6508,-490.1051 1119.9572,-457.7988 1083,-432 985.954,-364.255 959.2205,-350.9536 859,-288 839.4052,-275.6915 817.1951,-262.065 799.99,-251.5797"/>
<polygon fill="#000000" stroke="#000000" points="801.3571,-248.3145 790.995,-246.106 797.7182,-254.2943 801.3571,-248.3145"/>
</g>
<!-- L&#45;&gt;G -->
<g id="edge28" class="edge">
<title>L&#45;&gt;G</title>
<path fill="none" stroke="#000000" d="M1212.5391,-505.0566C1219.0862,-494.457 1227.6296,-480.4904 1235,-468 1261.0925,-423.782 1284.8516,-410.5737 1276,-360 1258.4032,-259.4608 1252.3289,-230.4069 1198,-144 1190.3862,-131.8908 1179.6605,-120.313 1169.8477,-111.0053"/>
<polygon fill="#000000" stroke="#000000" points="1171.993,-108.2245 1162.2506,-104.0608 1167.2701,-113.3911 1171.993,-108.2245"/>
</g>
<!-- H&#45;&gt;B -->
<g id="edge21" class="edge">
<title>H&#45;&gt;B</title>
<path fill="none" stroke="#000000" d="M1213.0525,-375.6454C1091.5425,-365.028 594.4339,-321.5913 453.4395,-309.2714"/>
<polygon fill="#000000" stroke="#000000" points="453.4247,-305.7569 443.1579,-308.373 452.8153,-312.7303 453.4247,-305.7569"/>
</g>
<!-- H&#45;&gt;K -->
<g id="edge62" class="edge">
<title>H&#45;&gt;K</title>
<path fill="none" stroke="#000000" d="M1250.4967,-361.2518C1279.9198,-311.9566 1356.9231,-165.0143 1292,-72 1278.9373,-53.2853 1219.7862,-35.8927 1180.6146,-26.1369"/>
<polygon fill="#000000" stroke="#000000" points="1181.427,-22.7325 1170.8828,-23.767 1179.7707,-29.5338 1181.427,-22.7325"/>
</g>
<!-- H&#45;&gt;G -->
<g id="edge98" class="edge">
<title>H&#45;&gt;G</title>
<path fill="none" stroke="#000000" d="M1237.0868,-360.1036C1230.1935,-320.1419 1210.9417,-221.1011 1178,-144 1173.7264,-133.9976 1167.823,-123.6556 1162.1894,-114.7326"/>
<polygon fill="#000000" stroke="#000000" points="1165.1132,-112.8085 1156.7162,-106.3478 1159.2514,-116.6348 1165.1132,-112.8085"/>
</g>
<!-- A&#45;&gt;N -->
<g id="edge46" class="edge">
<title>A&#45;&gt;N</title>
<path fill="none" stroke="#000000" d="M973.6918,-509.1278C956.6445,-497.763 931.5981,-481.0654 912.4656,-468.3104"/>
<polygon fill="#000000" stroke="#000000" points="914.4031,-465.3956 904.1411,-462.7607 910.5201,-471.2199 914.4031,-465.3956"/>
</g>
<!-- A&#45;&gt;H -->
<g id="edge79" class="edge">
<title>A&#45;&gt;H</title>
<path fill="none" stroke="#000000" d="M1018.4888,-515.8189C1048.8844,-507.7495 1100.5309,-491.7895 1140,-468 1170.5518,-449.5853 1200.2417,-421.11 1219.2241,-401.1323"/>
<polygon fill="#000000" stroke="#000000" points="1221.9266,-403.3664 1226.1944,-393.6692 1216.8108,-398.5885 1221.9266,-403.3664"/>
</g>
<!-- A&#45;&gt;T -->
<g id="edge14" class="edge">
<title>A&#45;&gt;T</title>
<path fill="none" stroke="#000000" d="M982.3903,-505.1429C969.5877,-485.7624 946.5707,-453.8221 921,-432 901.9018,-415.7016 877.1606,-401.8229 857.715,-392.2179"/>
<polygon fill="#000000" stroke="#000000" points="859.1712,-389.0345 848.6424,-387.8541 856.1371,-395.3428 859.1712,-389.0345"/>
</g>
<!-- A&#45;&gt;Y -->
<g id="edge75" class="edge">
<title>A&#45;&gt;Y</title>
<path fill="none" stroke="#000000" d="M967.825,-515.0284C953.5889,-511.3002 935.4061,-506.8945 919,-504 752.9778,-474.7086 552.0833,-458.3671 470.3207,-452.5103"/>
<polygon fill="#000000" stroke="#000000" points="470.2639,-448.9976 460.0422,-451.7846 469.7709,-455.9802 470.2639,-448.9976"/>
</g>
<!-- A&#45;&gt;G -->
<g id="edge90" class="edge">
<title>A&#45;&gt;G</title>
<path fill="none" stroke="#000000" d="M1014.9622,-511.1147C1052.738,-490.6618 1126,-442.6604 1126,-378 1126,-378 1126,-378 1126,-234 1126,-193.5282 1133.468,-147.2037 1139.04,-118.2725"/>
<polygon fill="#000000" stroke="#000000" points="1142.5483,-118.5746 1141.0632,-108.0844 1135.6823,-117.2111 1142.5483,-118.5746"/>
</g>
<!-- T&#45;&gt;B -->
<g id="edge34" class="edge">
<title>T&#45;&gt;B</title>
<path fill="none" stroke="#000000" d="M799.729,-373.3865C728.9411,-360.9555 534.0863,-326.7371 452.5874,-312.4251"/>
<polygon fill="#000000" stroke="#000000" points="452.7717,-308.904 442.317,-310.6215 451.5609,-315.7985 452.7717,-308.904"/>
</g>
<!-- T&#45;&gt;K -->
<g id="edge38" class="edge">
<title>T&#45;&gt;K</title>
<path fill="none" stroke="#000000" d="M840.1186,-362.0667C890.8689,-304.7937 1064.21,-109.1737 1124.2943,-41.3669"/>
<polygon fill="#000000" stroke="#000000" points="1127.0319,-43.5549 1131.0444,-33.7493 1121.7928,-38.9125 1127.0319,-43.5549"/>
</g>
<!-- T&#45;&gt;C -->
<g id="edge19" class="edge">
<title>T&#45;&gt;C</title>
<path fill="none" stroke="#000000" d="M819.2559,-360.3428C809.8133,-335.6202 792.5649,-290.4608 781.4515,-261.3639"/>
<polygon fill="#000000" stroke="#000000" points="784.637,-259.8946 777.7992,-251.8017 778.0977,-262.3923 784.637,-259.8946"/>
</g>
<!-- U&#45;&gt;R -->
<g id="edge15" class="edge">
<title>U&#45;&gt;R</title>
<path fill="none" stroke="#000000" d="M731.1382,-504.6365C704.8929,-446.6715 620.1597,-259.5306 588.2806,-189.1228"/>
<polygon fill="#000000" stroke="#000000" points="591.287,-187.2771 583.9739,-179.6111 584.9102,-190.1645 591.287,-187.2771"/>
</g>
<!-- U&#45;&gt;N -->
<g id="edge53" class="edge">
<title>U&#45;&gt;N</title>
<path fill="none" stroke="#000000" d="M760.6892,-511.1234C765.4038,-508.7681 770.3666,-506.2956 775,-504 801.5689,-490.8365 831.8127,-476.0003 853.8546,-465.2145"/>
<polygon fill="#000000" stroke="#000000" points="855.6174,-468.2486 863.0628,-460.7108 852.5419,-461.9604 855.6174,-468.2486"/>
</g>
<!-- U&#45;&gt;K -->
<g id="edge32" class="edge">
<title>U&#45;&gt;K</title>
<path fill="none" stroke="#000000" d="M759.8445,-510.1576C764.6963,-507.8054 769.9292,-505.5779 775,-504 884.7084,-469.8614 938.1884,-535.7302 1031,-468 1145.8084,-384.2174 1127.9121,-315.7538 1170,-180 1184.2876,-133.9157 1194.9816,-118.1781 1181,-72 1177.7339,-61.2127 1171.5236,-50.6108 1165.1687,-41.6963"/>
<polygon fill="#000000" stroke="#000000" points="1167.9513,-39.5732 1159.1229,-33.7156 1162.3715,-43.8001 1167.9513,-39.5732"/>
</g>
<!-- U&#45;&gt;T -->
<g id="edge81" class="edge">
<title>U&#45;&gt;T</title>
<path fill="none" stroke="#000000" d="M749.1503,-505.1995C764.1963,-480.2958 792.5455,-433.373 810.2874,-404.0071"/>
<polygon fill="#000000" stroke="#000000" points="813.4692,-405.5089 815.6447,-395.1398 807.4778,-401.8891 813.4692,-405.5089"/>
</g>
<!-- U&#45;&gt;C -->
<g id="edge61" class="edge">
<title>U&#45;&gt;C</title>
<path fill="none" stroke="#000000" d="M740.1594,-503.7309C742.788,-464.2389 749.8519,-368.0194 761,-288 762.184,-279.5011 763.7715,-270.3038 765.3324,-261.9496"/>
<polygon fill="#000000" stroke="#000000" points="768.8068,-262.4163 767.263,-251.9345 761.9334,-261.0913 768.8068,-262.4163"/>
</g>
<!-- U&#45;&gt;Y -->
<g id="edge27" class="edge">
<title>U&#45;&gt;Y</title>
<path fill="none" stroke="#000000" d="M713.4369,-515.9852C658.8746,-503.147 530.9145,-473.0387 468.4966,-458.3521"/>
<polygon fill="#000000" stroke="#000000" points="469.2413,-454.9319 458.7055,-456.0484 467.638,-461.7458 469.2413,-454.9319"/>
</g>
<!-- M&#45;&gt;R -->
<g id="edge100" class="edge">
<title>M&#45;&gt;R</title>
<path fill="none" stroke="#000000" d="M986.6694,-432.6904C964.4077,-388.4662 898.9162,-270.953 807,-216 774.3873,-196.5022 668.782,-177.058 612.3473,-167.7192"/>
<polygon fill="#000000" stroke="#000000" points="612.8443,-164.2541 602.4107,-166.0953 611.7152,-171.1624 612.8443,-164.2541"/>
</g>
<!-- M&#45;&gt;H -->
<g id="edge86" class="edge">
<title>M&#45;&gt;H</title>
<path fill="none" stroke="#000000" d="M1019.8402,-442.7C1063.7715,-429.7896 1155.2546,-402.9048 1205.3572,-388.1808"/>
<polygon fill="#000000" stroke="#000000" points="1206.4867,-391.4969 1215.0941,-385.3193 1204.5129,-384.7809 1206.4867,-391.4969"/>
</g>
<!-- M&#45;&gt;T -->
<g id="edge16" class="edge">
<title>M&#45;&gt;T</title>
<path fill="none" stroke="#000000" d="M972.4808,-440.0104C966.486,-437.3794 960.0068,-434.561 954,-432 915.5063,-415.5882 905.4937,-412.4118 867,-396 863.9966,-394.7195 860.8751,-393.3746 857.7551,-392.021"/>
<polygon fill="#000000" stroke="#000000" points="859.0843,-388.7824 848.5192,-387.9896 856.2839,-395.1979 859.0843,-388.7824"/>
</g>
<!-- M&#45;&gt;C -->
<g id="edge58" class="edge">
<title>M&#45;&gt;C</title>
<path fill="none" stroke="#000000" d="M979.6036,-435.1534C940.9202,-397.8516 839.4937,-300.0475 793.8439,-256.028"/>
<polygon fill="#000000" stroke="#000000" points="796.1321,-253.3724 786.5042,-248.9504 791.2732,-258.4113 796.1321,-253.3724"/>
</g>
<!-- M&#45;&gt;G -->
<g id="edge85" class="edge">
<title>M&#45;&gt;G</title>
<path fill="none" stroke="#000000" d="M1005.9698,-433.1168C1020.8888,-409.5269 1047.5929,-364.982 1064,-324 1094.7727,-247.1355 1079.4093,-220.1115 1112,-144 1116.2815,-134.001 1122.1868,-123.6598 1127.8196,-114.7365"/>
<polygon fill="#000000" stroke="#000000" points="1130.7577,-116.6384 1133.2913,-106.351 1124.8954,-112.8131 1130.7577,-116.6384"/>
</g>
<!-- C&#45;&gt;R -->
<g id="edge92" class="edge">
<title>C&#45;&gt;R</title>
<path fill="none" stroke="#000000" d="M747.0892,-225.1714C712.4935,-212.3976 648.3454,-188.7122 609.1854,-174.2531"/>
<polygon fill="#000000" stroke="#000000" points="610.3944,-170.9686 599.8011,-170.7881 607.9697,-177.5352 610.3944,-170.9686"/>
</g>
<!-- C&#45;&gt;K -->
<g id="edge23" class="edge">
<title>C&#45;&gt;K</title>
<path fill="none" stroke="#000000" d="M779.7997,-216.8641C797.9592,-183.3301 842.9657,-109.0818 903,-72 937.1177,-50.9263 1049.7556,-31.9245 1108.5506,-23.141"/>
<polygon fill="#000000" stroke="#000000" points="1109.1468,-26.5911 1118.53,-21.6712 1108.1267,-19.6658 1109.1468,-26.5911"/>
</g>
<!-- C&#45;&gt;G -->
<g id="edge70" class="edge">
<title>C&#45;&gt;G</title>
<path fill="none" stroke="#000000" d="M794.3954,-224.9922C858.6747,-200.2429 1038.1141,-131.1539 1112.2803,-102.598"/>
<polygon fill="#000000" stroke="#000000" points="1113.5389,-105.8639 1121.6135,-99.0044 1111.0237,-99.3314 1113.5389,-105.8639"/>
</g>
<!-- Y&#45;&gt;B -->
<g id="edge20" class="edge">
<title>Y&#45;&gt;B</title>
<path fill="none" stroke="#000000" d="M430.8813,-432.0535C427.9927,-407.5852 422.787,-363.4896 419.3622,-334.4799"/>
<polygon fill="#000000" stroke="#000000" points="422.7938,-333.6934 418.1454,-324.1727 415.842,-334.5141 422.7938,-333.6934"/>
</g>
<!-- Y&#45;&gt;C -->
<g id="edge56" class="edge">
<title>Y&#45;&gt;C</title>
<path fill="none" stroke="#000000" d="M451.6081,-436.934C491.9127,-408.781 590.5416,-340.6823 676,-288 697.4136,-274.7992 722.1312,-260.7862 740.9853,-250.3438"/>
<polygon fill="#000000" stroke="#000000" points="742.9267,-253.2702 749.9952,-245.378 739.5478,-247.1397 742.9267,-253.2702"/>
</g>
<!-- G&#45;&gt;K -->
<g id="edge25" class="edge">
<title>G&#45;&gt;K</title>
<path fill="none" stroke="#000000" d="M1145,-71.8314C1145,-64.131 1145,-54.9743 1145,-46.4166"/>
<polygon fill="#000000" stroke="#000000" points="1148.5001,-46.4132 1145,-36.4133 1141.5001,-46.4133 1148.5001,-46.4132"/>
</g>
</g>
</svg>
